# xmcd CD database file
#
# Track frame offsets:
#	150
#	16358
#	31070
#	46763
#	59975
#	75111
#	90558
#	105370
#	117683
#	132114
#	143458
#	156301
#	169048
#	184209
#	197874
#	209267
#	224017
#	238730
#
# Disc length: 3328 seconds
#
# Revision: 1
# Processed by: cddbd v1.4PL0 Copyright (c) Steve Scherf et al.
# Submitted via: CDex 1.50beta8
#
DISCID=f80cfe12
DTITLE=Glenn Miller - In The Mood
DYEAR=2001
DGENRE=Jazz
TTITLE0=in the mood
TTITLE1=string of pearls
TTITLE2=tuxedo junction
TTITLE3=april in paris
TTITLE4=starlit hour
TTITLE5=sunrise serenade
TTITLE6=king's march
TTITLE7=georgie on my mind
TTITLE8=don't sit under the apple tree
TTITLE9=the jumpin' jive
TTITLE10=wishing
TTITLE11=blueberry hill
TTITLE12=stardust
TTITLE13=rug cutters swing
TTITLE14=the woodpecker song
TTITLE15=indian summer
TTITLE16=kalamazoo
TTITLE17=over the rainbow
EXTD=YEAR: 2001
EXTT0=
EXTT1=
EXTT2=
EXTT3=
EXTT4=
EXTT5=
EXTT6=
EXTT7=
EXTT8=
EXTT9=
EXTT10=
EXTT11=
EXTT12=
EXTT13=
EXTT14=
EXTT15=
EXTT16=
EXTT17=
PLAYORDER=
